<svg xmlns="http://www.w3.org/2000/svg" class="graphdiagram" viewBox="-1065.2287351552889 -2093.4283042605266 3381.0571783241376 2062.3128167708396"><g class="layer relationships"><g class="related-pair"><g class="relationship" transform="translate(1967.4782157638854,-732.1001949639697) rotate(-90)"><path class="relationship" d="M 142.48624856883953 4 L 221.8262369982843 4 L 221.8262369982843 16 L 253.8262369982843 0 L 221.8262369982843 -16 L 221.8262369982843 -4 L 142.48624856883953 -4 Z" fill="rgb(0, 0, 0)" stroke="rgb(51, 51, 51)" stroke-width="0px"/><text class="type" text-anchor="middle" baseline-shift="30%" alignment-baseline="alphabetic" x="182.1562427835619" y="0" font-size="50px" font-family="&quot;Gill Sans&quot;, &quot;Gill Sans MT&quot;, Calibri, sans-serif">contain</text></g></g><g class="related-pair"><g class="relationship" transform="translate(1019.310055847168,-1123.6200000000001) rotate(0)"><path class="relationship" d="M 123.20703420193453 4 L 778.4745918789713 4 L 778.4745918789713 16 L 810.4745918789713 0 L 778.4745918789713 -16 L 778.4745918789713 -4 L 123.20703420193453 -4 Z" fill="rgb(0, 0, 0)" stroke="rgb(51, 51, 51)" stroke-width="0px"/><text class="type" text-anchor="middle" baseline-shift="30%" alignment-baseline="alphabetic" x="450.8408130404529" y="0" font-size="50px" font-family="&quot;Gill Sans&quot;, &quot;Gill Sans MT&quot;, Calibri, sans-serif">annotate</text></g></g><g class="related-pair"><g class="relationship" transform="translate(0,-732.1001949639697) rotate(-21.011920321960712)"><path class="relationship" d="M 123.650659173775 4 L 936.7090558373176 4 L 936.7090558373176 16 L 968.7090558373176 0 L 936.7090558373176 -16 L 936.7090558373176 -4 L 123.650659173775 -4 Z" fill="rgb(0, 0, 0)" stroke="rgb(51, 51, 51)" stroke-width="0px"/><text class="type" text-anchor="middle" baseline-shift="30%" alignment-baseline="alphabetic" x="530.1798575055462" y="0" font-size="50px" font-family="&quot;Gill Sans&quot;, &quot;Gill Sans MT&quot;, Calibri, sans-serif">pull/contain</text></g></g><g class="related-pair"><g class="relationship" transform="translate(1019.310055847168,-732.1001949639697) rotate(-90)"><path class="relationship" d="M 75.65039241383806 4 L 236.3127708340959 4 L 236.3127708340959 16 L 268.3127708340959 0 L 236.3127708340959 -16 L 236.3127708340959 -4 L 75.65039241383806 -4 Z" fill="rgb(0, 0, 0)" stroke="rgb(51, 51, 51)" stroke-width="0px"/><text class="type" text-anchor="middle" baseline-shift="30%" alignment-baseline="alphabetic" x="155.98158162396697" y="0" font-size="50px" font-family="&quot;Gill Sans&quot;, &quot;Gill Sans MT&quot;, Calibri, sans-serif">describe</text></g></g><g class="related-pair"><g class="relationship" transform="translate(518.1541893772536,-1456.7314821219163) rotate(33.61144532478505)"><path class="relationship" d="M 165.69836323316773 4 L 446.5574230557788 4 L 446.5574230557788 16 L 478.5574230557788 0 L 446.5574230557788 -16 L 446.5574230557788 -4 L 165.69836323316773 -4 Z" fill="rgb(0, 0, 0)" stroke="rgb(51, 51, 51)" stroke-width="0px"/><text class="type" text-anchor="middle" baseline-shift="30%" alignment-baseline="alphabetic" x="306.1278931444733" y="0" font-size="50px" font-family="&quot;Gill Sans&quot;, &quot;Gill Sans MT&quot;, Calibri, sans-serif">mark</text></g></g><g class="related-pair"><g class="relationship" transform="translate(0,-1123.6200000000001) rotate(0)"><path class="relationship" d="M 132.74920917146036 4 L 864.1030216452334 4 L 864.1030216452334 16 L 896.1030216452334 0 L 864.1030216452334 -16 L 864.1030216452334 -4 L 132.74920917146036 -4 Z" fill="rgb(0, 0, 0)" stroke="rgb(51, 51, 51)" stroke-width="0px"/><text class="type" text-anchor="middle" baseline-shift="30%" alignment-baseline="alphabetic" x="498.42611540834685" y="0" font-size="50px" font-family="&quot;Gill Sans&quot;, &quot;Gill Sans MT&quot;, Calibri, sans-serif">reference</text></g></g><g class="related-pair"><g class="relationship" transform="translate(518.1541893772536,-1456.7314821219163) rotate(147.2638066376314)"><path class="relationship" d="M 165.69836323316773 4 L 451.24350465773625 4 L 451.24350465773625 16 L 483.24350465773625 0 L 451.24350465773625 -16 L 451.24350465773625 -4 L 165.69836323316773 -4 Z" fill="rgb(0, 0, 0)" stroke="rgb(51, 51, 51)" stroke-width="0px"/><text class="type" text-anchor="middle" baseline-shift="30%" alignment-baseline="alphabetic" transform="rotate(180)" x="-308.470933945452" y="0" font-size="50px" font-family="&quot;Gill Sans&quot;, &quot;Gill Sans MT&quot;, Calibri, sans-serif">mark</text></g></g><g class="related-pair"><g class="relationship" transform="translate(-725.8112200984067,-1123.6200000000001) rotate(0)"><path class="relationship" d="M 129.4111690721275 4 L 561.0620109269463 4 L 561.0620109269463 16 L 593.0620109269463 0 L 561.0620109269463 -16 L 561.0620109269463 -4 L 129.4111690721275 -4 Z" fill="rgb(0, 0, 0)" stroke="rgb(51, 51, 51)" stroke-width="0px"/><text class="type" text-anchor="middle" baseline-shift="30%" alignment-baseline="alphabetic" x="345.23658999953693" y="0" font-size="50px" font-family="&quot;Gill Sans&quot;, &quot;Gill Sans MT&quot;, Calibri, sans-serif">contain</text></g></g><g class="related-pair"><g class="relationship" transform="translate(0,-732.1001949639697) rotate(-151.65652280708588)"><path class="relationship" d="M 123.650659173775 4 L 663.2643337507641 4 L 663.2643337507641 16 L 695.2643337507641 0 L 663.2643337507641 -16 L 663.2643337507641 -4 L 123.650659173775 -4 Z" fill="rgb(0, 0, 0)" stroke="rgb(51, 51, 51)" stroke-width="0px"/><text class="type" text-anchor="middle" baseline-shift="30%" alignment-baseline="alphabetic" transform="rotate(180)" x="-393.45749646226955" y="0" font-size="50px" font-family="&quot;Gill Sans&quot;, &quot;Gill Sans MT&quot;, Calibri, sans-serif">inherit</text></g></g><g class="related-pair"><g class="relationship" transform="translate(-725.8112200984067,-732.1001949639697) rotate(0)"><path class="relationship" d="M 156.14154415851044 4 L 570.1605609246317 4 L 570.1605609246317 16 L 602.1605609246317 0 L 570.1605609246317 -16 L 570.1605609246317 -4 L 156.14154415851044 -4 Z" fill="rgb(0, 0, 0)" stroke="rgb(51, 51, 51)" stroke-width="0px"/><text class="type" text-anchor="middle" baseline-shift="30%" alignment-baseline="alphabetic" x="363.15105254157106" y="0" font-size="50px" font-family="&quot;Gill Sans&quot;, &quot;Gill Sans MT&quot;, Calibri, sans-serif">own</text></g></g><g class="related-pair"><g class="relationship" transform="translate(-725.8112200984067,-732.1001949639697) rotate(-90)"><path class="relationship" d="M 156.14154415851044 4 L 230.10863596390288 4 L 230.10863596390288 16 L 262.1086359639029 0 L 230.10863596390288 -16 L 230.10863596390288 -4 L 156.14154415851044 -4 Z" fill="rgb(0, 0, 0)" stroke="rgb(51, 51, 51)" stroke-width="0px"/><text class="type" text-anchor="middle" baseline-shift="30%" alignment-baseline="alphabetic" x="193.12509006120666" y="0" font-size="50px" font-family="&quot;Gill Sans&quot;, &quot;Gill Sans MT&quot;, Calibri, sans-serif">own</text></g></g><g class="related-pair"><g class="relationship" transform="translate(0,-732.1001949639697) rotate(-90)"><path class="relationship" d="M 123.650659173775 4 L 226.77059586457005 4 L 226.77059586457005 16 L 258.77059586457005 0 L 226.77059586457005 -16 L 226.77059586457005 -4 L 123.650659173775 -4 Z" fill="rgb(0, 0, 0)" stroke="rgb(51, 51, 51)" stroke-width="0px"/><text class="type" text-anchor="middle" baseline-shift="30%" alignment-baseline="alphabetic" x="175.21062751917253" y="0" font-size="50px" font-family="&quot;Gill Sans&quot;, &quot;Gill Sans MT&quot;, Calibri, sans-serif">pull</text></g></g></g><g class="layer nodes"><circle class="node node-id-0" r="127.48624856883954" fill="rgb(255, 255, 255)" stroke="rgb(0, 0, 0)" stroke-width="8px" cx="1967.4782157638854" cy="-732.1001949639697"/><circle class="node node-id-1" r="122.6935680377461" fill="rgb(255, 255, 255)" stroke="rgb(0, 0, 0)" stroke-width="8px" cx="1967.4782157638854" cy="-1123.6200000000001"/><circle class="node node-id-2" r="108.20703420193453" fill="rgb(255, 255, 255)" stroke="rgb(0, 0, 0)" stroke-width="8px" cx="1019.310055847168" cy="-1123.6200000000001"/><circle class="node node-id-3" r="108.650659173775" fill="rgb(255, 255, 255)" stroke="rgb(0, 0, 0)" stroke-width="8px" cx="0" cy="-732.1001949639697"/><circle class="node node-id-4" r="60.65039241383807" fill="rgb(255, 255, 255)" stroke="rgb(0, 0, 0)" stroke-width="8px" cx="1019.310055847168" cy="-732.1001949639697"/><circle class="node node-id-5" r="150.69836323316773" fill="rgb(255, 255, 255)" stroke="rgb(0, 0, 0)" stroke-width="8px" cx="518.1541893772536" cy="-1456.7314821219163"/><g class="caption"><text class="caption node" text-anchor="middle" alignment-baseline="central" x="1967.4782157638854" y="-732.1001949639697" fill="rgb(51, 51, 51)" font-size="50px" font-family="&quot;Gill Sans&quot;, &quot;Gill Sans MT&quot;, Calibri, sans-serif">Web_Doc</text></g><g class="caption"><text class="caption node" text-anchor="middle" alignment-baseline="central" x="1967.4782157638854" y="-1123.6200000000001" fill="rgb(51, 51, 51)" font-size="50px" font-family="&quot;Gill Sans&quot;, &quot;Gill Sans MT&quot;, Calibri, sans-serif">Web_Obj</text></g><g class="caption"><text class="caption node" text-anchor="middle" alignment-baseline="central" x="1019.310055847168" y="-1123.6200000000001" fill="rgb(51, 51, 51)" font-size="50px" font-family="&quot;Gill Sans&quot;, &quot;Gill Sans MT&quot;, Calibri, sans-serif">Note_H</text></g><g class="caption"><text class="caption node" text-anchor="middle" alignment-baseline="central" x="0" y="-757.1001949639697" fill="rgb(51, 51, 51)" font-size="50px" font-family="&quot;Gill Sans&quot;, &quot;Gill Sans MT&quot;, Calibri, sans-serif">Idea_</text><text class="caption node" text-anchor="middle" alignment-baseline="central" x="0" y="-707.1001949639697" fill="rgb(51, 51, 51)" font-size="50px" font-family="&quot;Gill Sans&quot;, &quot;Gill Sans MT&quot;, Calibri, sans-serif">Magnet</text></g><g class="caption"><text class="caption node" text-anchor="middle" alignment-baseline="central" x="1019.310055847168" y="-732.1001949639697" fill="rgb(51, 51, 51)" font-size="50px" font-family="&quot;Gill Sans&quot;, &quot;Gill Sans MT&quot;, Calibri, sans-serif">Tag</text></g><g class="caption"><text class="caption node" text-anchor="middle" alignment-baseline="central" x="518.1541893772536" y="-1481.7314821219163" fill="rgb(51, 51, 51)" font-size="50px" font-family="&quot;Gill Sans&quot;, &quot;Gill Sans MT&quot;, Calibri, sans-serif">Episteme_</text><text class="caption node" text-anchor="middle" alignment-baseline="central" x="518.1541893772536" y="-1431.7314821219163" fill="rgb(51, 51, 51)" font-size="50px" font-family="&quot;Gill Sans&quot;, &quot;Gill Sans MT&quot;, Calibri, sans-serif">Mode</text></g><circle class="node node-id-6" r="117.74920917146036" fill="rgb(255, 255, 255)" stroke="rgb(0, 0, 0)" stroke-width="8px" cx="0" cy="-1123.6200000000001"/><g class="caption"><text class="caption node" text-anchor="middle" alignment-baseline="central" x="0" y="-1123.6200000000001" fill="rgb(51, 51, 51)" font-size="50px" font-family="&quot;Gill Sans&quot;, &quot;Gill Sans MT&quot;, Calibri, sans-serif">Note_KF</text></g><circle class="node node-id-7" r="114.41116907212749" fill="rgb(255, 255, 255)" stroke="rgb(0, 0, 0)" stroke-width="8px" cx="-725.8112200984067" cy="-1123.6200000000001"/><g class="caption"><text class="caption node" text-anchor="middle" alignment-baseline="central" x="-725.8112200984067" y="-1123.6200000000001" fill="rgb(51, 51, 51)" font-size="50px" font-family="&quot;Gill Sans&quot;, &quot;Gill Sans MT&quot;, Calibri, sans-serif">View_KF</text></g><circle class="node node-id-8" r="141.14154415851044" fill="rgb(255, 255, 255)" stroke="rgb(0, 0, 0)" stroke-width="8px" cx="-725.8112200984067" cy="-732.1001949639697"/><g class="caption"><text class="caption node" text-anchor="middle" alignment-baseline="central" x="-725.8112200984067" y="-732.1001949639697" fill="rgb(51, 51, 51)" font-size="50px" font-family="&quot;Gill Sans&quot;, &quot;Gill Sans MT&quot;, Calibri, sans-serif">Community</text></g></g><g class="layer properties"><g class="speech-bubble node-speech-bubble" transform="translate(1967.4782157638854,-604.6139463951301) "><path class="speech-bubble-outline" transform="scale(1,1) " d="M 0 0 L -10 20 L -96.8017578125 20 A 10 10 0 0 0 -106.8017578125 30 L -106.8017578125 80 A 10 10 0 0 0 -96.8017578125 90 L 96.8017578125 90 A 10 10 0 0 0 106.8017578125 80 L 106.8017578125 30 A 10 10 0 0 0 96.8017578125 20 L 10 20 Z" fill="rgb(255, 255, 255)" stroke="rgb(0, 0, 0)" stroke-width="3px"/><text class="speech-bubble-content property-key" x="-16.1865234375" y="55" alignment-baseline="central" text-anchor="end" font-size="50px" font-family="&quot;Gill Sans&quot;, &quot;Gill Sans MT&quot;, Calibri, sans-serif" xml:space="preserve">url: </text><text class="speech-bubble-content property-value" x="-16.1865234375" y="55" alignment-baseline="central" font-size="50px" font-family="&quot;Gill Sans&quot;, &quot;Gill Sans MT&quot;, Calibri, sans-serif">string</text></g><g class="speech-bubble node-speech-bubble" transform="translate(2054.2356697313485,-1210.3774539674635) "><path class="speech-bubble-outline" transform="scale(1,-1) " d="M 0 0 L 30 20 L 250.0927734375 20 A 10 10 0 0 1 260.0927734375 30 L 260.0927734375 80 A 10 10 0 0 1 250.0927734375 90 L 30 90 A 10 10 0 0 1 20 80 L 20 30 Z" fill="rgb(255, 255, 255)" stroke="rgb(0, 0, 0)" stroke-width="3px"/><text class="speech-bubble-content property-key" x="137.1044921875" y="-55" alignment-baseline="central" text-anchor="end" font-size="50px" font-family="&quot;Gill Sans&quot;, &quot;Gill Sans MT&quot;, Calibri, sans-serif" xml:space="preserve">text: </text><text class="speech-bubble-content property-value" x="137.1044921875" y="-55" alignment-baseline="central" font-size="50px" font-family="&quot;Gill Sans&quot;, &quot;Gill Sans MT&quot;, Calibri, sans-serif">string</text></g><g class="speech-bubble node-speech-bubble" transform="translate(-806.7121335927886,-1204.520913494382) "><path class="speech-bubble-outline" transform="scale(-1,-1) " d="M 0 0 L 30 20 L 247.0166015625 20 A 10 10 0 0 1 257.0166015625 30 L 257.0166015625 80 A 10 10 0 0 1 247.0166015625 90 L 30 90 A 10 10 0 0 1 20 80 L 20 30 Z" fill="rgb(255, 255, 255)" stroke="rgb(0, 0, 0)" stroke-width="3px"/><text class="speech-bubble-content property-key" x="-142.98828125" y="-55" alignment-baseline="central" text-anchor="end" font-size="50px" font-family="&quot;Gill Sans&quot;, &quot;Gill Sans MT&quot;, Calibri, sans-serif" xml:space="preserve">title: </text><text class="speech-bubble-content property-value" x="-142.98828125" y="-55" alignment-baseline="central" font-size="50px" font-family="&quot;Gill Sans&quot;, &quot;Gill Sans MT&quot;, Calibri, sans-serif">string</text></g></g><g class="layer overlay"><circle class="node overlay" r="131.48624856883953" stroke="none" fill="rgba(255, 255, 255, 0)" cx="1967.4782157638854" cy="-732.1001949639697"/><circle class="node overlay" r="126.6935680377461" stroke="none" fill="rgba(255, 255, 255, 0)" cx="1967.4782157638854" cy="-1123.6200000000001"/><circle class="node overlay" r="112.20703420193453" stroke="none" fill="rgba(255, 255, 255, 0)" cx="1019.310055847168" cy="-1123.6200000000001"/><circle class="node overlay" r="112.650659173775" stroke="none" fill="rgba(255, 255, 255, 0)" cx="0" cy="-732.1001949639697"/><circle class="node overlay" r="64.65039241383806" stroke="none" fill="rgba(255, 255, 255, 0)" cx="1019.310055847168" cy="-732.1001949639697"/><circle class="node overlay" r="154.69836323316773" stroke="none" fill="rgba(255, 255, 255, 0)" cx="518.1541893772536" cy="-1456.7314821219163"/><circle class="node ring" r="136.48624856883953" fill="none" stroke="rgba(255, 255, 255, 0)" stroke-width="10px" cx="1967.4782157638854" cy="-732.1001949639697"/><circle class="node ring" r="131.6935680377461" fill="none" stroke="rgba(255, 255, 255, 0)" stroke-width="10px" cx="1967.4782157638854" cy="-1123.6200000000001"/><circle class="node ring" r="117.20703420193453" fill="none" stroke="rgba(255, 255, 255, 0)" stroke-width="10px" cx="1019.310055847168" cy="-1123.6200000000001"/><circle class="node ring" r="117.650659173775" fill="none" stroke="rgba(255, 255, 255, 0)" stroke-width="10px" cx="0" cy="-732.1001949639697"/><circle class="node ring" r="69.65039241383806" fill="none" stroke="rgba(255, 255, 255, 0)" stroke-width="10px" cx="1019.310055847168" cy="-732.1001949639697"/><circle class="node ring" r="159.69836323316773" fill="none" stroke="rgba(255, 255, 255, 0)" stroke-width="10px" cx="518.1541893772536" cy="-1456.7314821219163"/><path class="relationship overlay" fill="rgba(255, 255, 255, 0)" stroke="rgba(255, 255, 255, 0)" stroke-width="10px" transform="translate(1967.4782157638854,-732.1001949639697) rotate(-90)" d="M 142.48624856883953 4 L 221.8262369982843 4 L 221.8262369982843 16 L 253.8262369982843 0 L 221.8262369982843 -16 L 221.8262369982843 -4 L 142.48624856883953 -4 Z"/><path class="relationship overlay" fill="rgba(255, 255, 255, 0)" stroke="rgba(255, 255, 255, 0)" stroke-width="10px" transform="translate(1019.310055847168,-1123.6200000000001) rotate(0)" d="M 123.20703420193453 4 L 778.4745918789713 4 L 778.4745918789713 16 L 810.4745918789713 0 L 778.4745918789713 -16 L 778.4745918789713 -4 L 123.20703420193453 -4 Z"/><path class="relationship overlay" fill="rgba(255, 255, 255, 0)" stroke="rgba(255, 255, 255, 0)" stroke-width="10px" transform="translate(0,-732.1001949639697) rotate(-21.011920321960712)" d="M 123.650659173775 4 L 936.7090558373176 4 L 936.7090558373176 16 L 968.7090558373176 0 L 936.7090558373176 -16 L 936.7090558373176 -4 L 123.650659173775 -4 Z"/><path class="relationship overlay" fill="rgba(255, 255, 255, 0)" stroke="rgba(255, 255, 255, 0)" stroke-width="10px" transform="translate(1019.310055847168,-732.1001949639697) rotate(-90)" d="M 75.65039241383806 4 L 236.3127708340959 4 L 236.3127708340959 16 L 268.3127708340959 0 L 236.3127708340959 -16 L 236.3127708340959 -4 L 75.65039241383806 -4 Z"/><path class="relationship overlay" fill="rgba(255, 255, 255, 0)" stroke="rgba(255, 255, 255, 0)" stroke-width="10px" transform="translate(518.1541893772536,-1456.7314821219163) rotate(33.61144532478505)" d="M 165.69836323316773 4 L 446.5574230557788 4 L 446.5574230557788 16 L 478.5574230557788 0 L 446.5574230557788 -16 L 446.5574230557788 -4 L 165.69836323316773 -4 Z"/><circle class="node overlay" r="121.74920917146036" stroke="none" fill="rgba(255, 255, 255, 0)" cx="0" cy="-1123.6200000000001"/><circle class="node ring" r="126.74920917146036" fill="none" stroke="rgba(255, 255, 255, 0)" stroke-width="10px" cx="0" cy="-1123.6200000000001"/><path class="relationship overlay" fill="rgba(255, 255, 255, 0)" stroke="rgba(255, 255, 255, 0)" stroke-width="10px" transform="translate(0,-1123.6200000000001) rotate(0)" d="M 132.74920917146036 4 L 864.1030216452334 4 L 864.1030216452334 16 L 896.1030216452334 0 L 864.1030216452334 -16 L 864.1030216452334 -4 L 132.74920917146036 -4 Z"/><path class="relationship overlay" fill="rgba(255, 255, 255, 0)" stroke="rgba(255, 255, 255, 0)" stroke-width="10px" transform="translate(518.1541893772536,-1456.7314821219163) rotate(147.2638066376314)" d="M 165.69836323316773 4 L 451.24350465773625 4 L 451.24350465773625 16 L 483.24350465773625 0 L 451.24350465773625 -16 L 451.24350465773625 -4 L 165.69836323316773 -4 Z"/><circle class="node overlay" r="118.41116907212749" stroke="none" fill="rgba(255, 255, 255, 0)" cx="-725.8112200984067" cy="-1123.6200000000001"/><circle class="node ring" r="123.41116907212749" fill="none" stroke="rgba(255, 255, 255, 0)" stroke-width="10px" cx="-725.8112200984067" cy="-1123.6200000000001"/><path class="relationship overlay" fill="rgba(255, 255, 255, 0)" stroke="rgba(255, 255, 255, 0)" stroke-width="10px" transform="translate(-725.8112200984067,-1123.6200000000001) rotate(0)" d="M 129.4111690721275 4 L 561.0620109269463 4 L 561.0620109269463 16 L 593.0620109269463 0 L 561.0620109269463 -16 L 561.0620109269463 -4 L 129.4111690721275 -4 Z"/><path class="relationship overlay" fill="rgba(255, 255, 255, 0)" stroke="rgba(255, 255, 255, 0)" stroke-width="10px" transform="translate(0,-732.1001949639697) rotate(-151.65652280708588)" d="M 123.650659173775 4 L 663.2643337507641 4 L 663.2643337507641 16 L 695.2643337507641 0 L 663.2643337507641 -16 L 663.2643337507641 -4 L 123.650659173775 -4 Z"/><circle class="node overlay" r="145.14154415851044" stroke="none" fill="rgba(255, 255, 255, 0)" cx="-725.8112200984067" cy="-732.1001949639697"/><circle class="node ring" r="150.14154415851044" fill="none" stroke="rgba(255, 255, 255, 0)" stroke-width="10px" cx="-725.8112200984067" cy="-732.1001949639697"/><path class="relationship overlay" fill="rgba(255, 255, 255, 0)" stroke="rgba(255, 255, 255, 0)" stroke-width="10px" transform="translate(-725.8112200984067,-732.1001949639697) rotate(0)" d="M 156.14154415851044 4 L 570.1605609246317 4 L 570.1605609246317 16 L 602.1605609246317 0 L 570.1605609246317 -16 L 570.1605609246317 -4 L 156.14154415851044 -4 Z"/><path class="relationship overlay" fill="rgba(255, 255, 255, 0)" stroke="rgba(255, 255, 255, 0)" stroke-width="10px" transform="translate(-725.8112200984067,-732.1001949639697) rotate(-90)" d="M 156.14154415851044 4 L 230.10863596390288 4 L 230.10863596390288 16 L 262.1086359639029 0 L 230.10863596390288 -16 L 230.10863596390288 -4 L 156.14154415851044 -4 Z"/><path class="relationship overlay" fill="rgba(255, 255, 255, 0)" stroke="rgba(255, 255, 255, 0)" stroke-width="10px" transform="translate(0,-732.1001949639697) rotate(-90)" d="M 123.650659173775 4 L 226.77059586457005 4 L 226.77059586457005 16 L 258.77059586457005 0 L 226.77059586457005 -16 L 226.77059586457005 -4 L 123.650659173775 -4 Z"/></g></svg>